<svg width="50" height="50" viewBox="0 0 50 50" fill="none" xmlns="http://www.w3.org/2000/svg">
<rect width="50" height="50" rx="8" fill="#3AB25B"/>
<path d="M24 33C24 33.5523 24.4477 34 25 34C25.5523 34 26 33.5523 26 33L24 33ZM25.7071 16.2929C25.3166 15.9024 24.6834 15.9024 24.2929 16.2929L17.9289 22.6569C17.5384 23.0474 17.5384 23.6805 17.9289 24.0711C18.3195 24.4616 18.9526 24.4616 19.3431 24.0711L25 18.4142L30.6569 24.0711C31.0474 24.4616 31.6805 24.4616 32.0711 24.0711C32.4616 23.6805 32.4616 23.0474 32.0711 22.6569L25.7071 16.2929ZM26 33L26 17L24 17L24 33L26 33Z" fill="white"/>
</svg>
