<svg width="119" height="48" viewBox="0 0 119 48" fill="none" xmlns="http://www.w3.org/2000/svg">
<path d="M4.70435 6.59987C5.42251 2.29274 9.47268 -0.612703 13.7506 0.110382L41.1195 4.73645C45.3972 5.45953 48.2831 9.53733 47.565 13.8445L42.9702 41.4002C42.2521 45.7071 38.2019 48.6127 33.9239 47.8896L6.55513 43.2635C2.2772 42.5405 -0.60855 38.4626 0.109633 34.1555L4.70435 6.59987Z" fill="#B4DBBE"/>
<path d="M36.8985 3.28223H10.7176C6.37976 3.28223 2.86328 6.82271 2.86328 11.1901V37.5497C2.86328 41.9171 6.37976 45.4576 10.7176 45.4576H36.8985C41.2363 45.4576 44.7528 41.9171 44.7528 37.5497V11.1901C44.7528 6.82271 41.2363 3.28223 36.8985 3.28223Z" fill="url(#paint0_linear_1968_2)"/>
<path fill-rule="evenodd" clip-rule="evenodd" d="M29.0042 12.8056C29.7156 12.9232 30.3203 13.0462 30.9461 13.2944C31.6056 13.6084 32.115 14.0851 32.4745 14.7246C33.2393 15.8902 34.2972 18.3997 34.6504 19.9748C34.9381 19.5233 35.2738 19.1069 35.6573 18.7256C35.8178 18.5965 35.9977 18.506 36.1966 18.4541C36.597 18.3663 37.308 18.3346 37.6353 18.3997C37.8565 18.4779 38.0003 18.6287 38.0668 18.8523C38.1335 19.3888 38.1754 20.1733 38.0487 20.699C37.9513 20.9321 37.7775 21.0649 37.5274 21.0972C36.7001 21.224 35.8084 21.2015 34.974 21.224C35.7628 21.9825 36.3684 22.8696 36.7902 23.8853C37.308 25.406 36.9946 29.2291 36.7721 30.5476C36.6535 31.2509 36.5226 31.9099 36.1068 32.4305C35.8929 32.6761 35.5992 32.8477 35.2976 32.9642V33.915C35.3515 35.3366 34.8698 35.6002 34.5323 35.6529C33.9569 35.659 32.8287 35.6711 32.2533 35.6529C31.7297 35.4684 31.5035 35.2048 31.5035 34.5305C31.5035 34.1681 31.4796 33.8067 31.4857 33.4442C29.8925 33.5463 28.2981 33.6187 26.7024 33.6615C24.2809 33.6659 21.8594 33.6538 19.438 33.6253C18.3225 33.5745 17.1178 33.561 16.0036 33.4914V34.5458C16.0036 35.3366 15.5512 35.6384 15.0276 35.6529C14.3804 35.6711 13.8639 35.659 13.2165 35.6529C12.8022 35.635 12.2455 35.3366 12.2455 34.5458C12.2455 33.8868 12.2455 32.9735 12.2455 32.9735C11.1004 32.7006 10.9339 31.2377 10.789 30.6201C10.4712 28.7731 10.3634 26.9144 10.4653 25.044C10.6556 24.0824 11.0272 23.2013 11.5802 22.4007C11.895 21.987 12.2367 21.5948 12.6051 21.224C12.0433 21.224 11.5197 21.1697 10.9868 21.1697C10.6648 21.1697 10.3416 21.1697 10.0158 21.0972C9.83148 21.0387 9.62816 20.9296 9.56625 20.7714C9.48433 20.5621 9.43639 20.3449 9.42238 20.1196C9.38382 19.6811 9.42246 19.1071 9.5563 18.8618C9.70006 18.5982 9.92037 18.4727 10.0158 18.4664C10.4763 18.4358 11.3874 18.4174 11.778 18.6532L12.1376 18.9429C12.4172 19.2706 12.6749 19.6146 12.9108 19.9748C13.3659 17.9844 14.3608 15.7033 15.572 14.0728C15.8895 13.7169 16.2671 13.4453 16.7049 13.2581C17.2758 13.039 17.8631 12.8821 18.467 12.7874C20.814 12.4195 26.5738 12.4037 29.0042 12.8056ZM17.0285 25.406C17.0178 24.7927 16.6335 24.2472 16.3452 24.012C15.6967 23.5364 14.9894 23.4278 14.2234 23.6861C13.2521 24.1997 12.8625 25.0023 13.0546 26.094C13.2507 26.78 13.7452 27.2969 14.583 27.5784C14.9694 27.6341 15.353 27.6159 15.7338 27.5241C16.6198 27.0976 17.0514 26.3917 17.0285 25.406ZM34.5603 25.2612C34.4281 24.1337 33.5118 23.3429 32.097 23.5594C30.8937 23.8701 30.3101 24.9497 30.6405 26.3112C31.1715 27.4142 32.0286 27.8186 33.2118 27.5241C34.1799 27.0908 34.6295 26.3364 34.5603 25.2612ZM20.5529 29.8596C22.5662 29.901 24.5801 29.907 26.5945 29.8778C26.8508 29.8715 27.1024 29.8351 27.3498 29.7692C27.752 29.5375 28.1905 29.0675 28.4827 28.5922C28.6987 28.2198 28.633 27.9122 28.2848 27.6691C27.6211 27.2969 19.6961 27.2553 19.2222 27.7052C18.9377 27.9754 18.8957 28.2833 19.0964 28.6286C19.362 29.005 19.6677 29.349 20.0134 29.6606C20.0985 29.7273 20.325 29.8549 20.5529 29.8596ZM29.8465 14.6442C28.0138 14.2488 19.6359 14.1829 17.8032 14.6442C17.2796 14.776 16.8067 14.9078 16.543 15.3401C15.5446 16.977 14.8553 18.7391 14.4752 20.6265C19.6837 20.1842 27.8473 20.2929 33.068 20.5903C32.7062 18.686 32.0111 16.9178 30.9822 15.2858C30.7767 15.1361 30.6183 14.8108 29.8465 14.6442Z" fill="white"/>
<path d="M64.4425 16.3318L63.2054 12.6506C63.1138 12.4169 63.0159 12.1432 62.9122 11.8295C62.8083 11.5097 62.7043 11.1653 62.6007 10.7962C62.509 11.1714 62.4111 11.5189 62.3074 11.8388C62.2035 12.1586 62.1058 12.4354 62.0142 12.6691L60.7863 16.3318H64.4425ZM69.3632 21.4706H66.9624C66.6935 21.4706 66.4767 21.409 66.3118 21.286C66.1469 21.1569 66.0215 20.9939 65.9361 20.7971L65.1481 18.4537H60.0716L59.2835 20.7971C59.2162 20.9693 59.094 21.1261 58.917 21.2676C58.7458 21.4029 58.5321 21.4706 58.2756 21.4706H55.8564L61.0246 8.02847H64.1951L69.3632 21.4706ZM75.6589 19.118C76.0681 19.118 76.4011 19.0657 76.6577 18.9611C76.9203 18.8566 77.125 18.7213 77.2717 18.5552C77.4183 18.3891 77.5191 18.2015 77.574 17.9924C77.629 17.7833 77.6565 17.5711 77.6565 17.3558C77.6565 17.1098 77.6227 16.8884 77.5557 16.6916C77.4945 16.4947 77.3845 16.3287 77.2258 16.1934C77.0729 16.058 76.8685 15.9535 76.6119 15.8797C76.3553 15.8059 76.0315 15.769 75.6406 15.769H73.478V19.118H75.6589ZM73.478 10.3626V13.6839H75.0908C75.4327 13.6839 75.7414 13.6593 76.0163 13.6101C76.2912 13.5609 76.5231 13.4748 76.7127 13.3518C76.908 13.2288 77.0546 13.0596 77.1525 12.8444C77.2562 12.6291 77.3083 12.3585 77.3083 12.0325C77.3083 11.7127 77.2685 11.4482 77.1892 11.2391C77.1096 11.0238 76.9876 10.8516 76.8227 10.7224C76.6577 10.5933 76.447 10.501 76.1904 10.4457C75.9398 10.3903 75.6406 10.3626 75.2924 10.3626H73.478ZM75.2924 8.02847C76.2147 8.02847 76.9996 8.11456 77.6474 8.2868C78.2948 8.45901 78.8231 8.70196 79.2326 9.01564C79.6418 9.32932 79.9382 9.71064 80.1214 10.1596C80.3107 10.6086 80.4055 11.1099 80.4055 11.6635C80.4055 11.9648 80.3626 12.257 80.2772 12.5399C80.1916 12.8167 80.0573 13.0781 79.874 13.3241C79.6908 13.564 79.4554 13.7854 79.1685 13.9884C78.8813 14.1914 78.5362 14.3666 78.133 14.5143C79.0127 14.7295 79.6633 15.077 80.0848 15.5568C80.5063 16.0365 80.7171 16.6577 80.7171 17.4204C80.7171 17.9924 80.6071 18.5244 80.3872 19.0165C80.1673 19.5085 79.8434 19.9391 79.4159 20.3081C78.9944 20.671 78.4721 20.957 77.8489 21.1661C77.2258 21.3691 76.514 21.4706 75.7139 21.4706H70.3808V8.02847H75.2924ZM92.2521 10.501H88.4952V21.4706H85.398V10.501H81.641V8.02847H92.2521V10.501ZM106.625 14.7449C106.625 15.7167 106.457 16.6208 106.121 17.4573C105.791 18.2938 105.324 19.0226 104.719 19.6438C104.114 20.2589 103.385 20.7417 102.529 21.0923C101.68 21.4429 100.736 21.6182 99.6977 21.6182C98.6594 21.6182 97.7124 21.4429 96.8571 21.0923C96.002 20.7417 95.269 20.2589 94.6579 19.6438C94.0531 19.0226 93.5829 18.2938 93.2467 17.4573C92.9169 16.6208 92.7519 15.7167 92.7519 14.7449C92.7519 13.7731 92.9169 12.869 93.2467 12.0325C93.5829 11.196 94.0531 10.4702 94.6579 9.8552C95.269 9.24012 96.002 8.75732 96.8571 8.40673C97.7124 8.05615 98.6594 7.88086 99.6977 7.88086C100.736 7.88086 101.68 8.05921 102.529 8.41596C103.385 8.76654 104.114 9.24935 104.719 9.86442C105.324 10.4795 105.791 11.2052 106.121 12.0417C106.457 12.8782 106.625 13.7792 106.625 14.7449ZM103.455 14.7449C103.455 14.0806 103.369 13.484 103.198 12.9551C103.027 12.42 102.78 11.9679 102.456 11.5989C102.138 11.2299 101.747 10.9469 101.283 10.7501C100.819 10.5533 100.29 10.4549 99.6977 10.4549C99.0992 10.4549 98.5646 10.5533 98.0941 10.7501C97.6299 10.9469 97.2359 11.2299 96.9121 11.5989C96.5945 11.9679 96.3502 12.42 96.179 12.9551C96.008 13.484 95.9224 14.0806 95.9224 14.7449C95.9224 15.4153 96.008 16.0181 96.179 16.5532C96.3502 17.0821 96.5945 17.5311 96.9121 17.9002C97.2359 18.2692 97.6299 18.5521 98.0941 18.7489C98.5646 18.9396 99.0992 19.0349 99.6977 19.0349C100.29 19.0349 100.819 18.9396 101.283 18.7489C101.747 18.5521 102.138 18.2692 102.456 17.9002C102.78 17.5311 103.027 17.0821 103.198 16.5532C103.369 16.0181 103.455 15.4153 103.455 14.7449ZM69.9405 35.1618C69.9405 36.1519 69.7847 37.0623 69.4731 37.8927C69.1616 38.7167 68.7217 39.4271 68.1536 40.0238C67.5855 40.6204 66.9011 41.0848 66.101 41.4169C65.3067 41.7428 64.427 41.9059 63.462 41.9059C62.4967 41.9059 61.617 41.7428 60.823 41.4169C60.0286 41.0848 59.3477 40.6204 58.7795 40.0238C58.2114 39.4271 57.7716 38.7167 57.46 37.8927C57.1485 37.0623 56.9927 36.1519 56.9927 35.1618C56.9927 34.1715 57.1485 33.2642 57.46 32.4402C57.7716 31.6098 58.2114 30.8963 58.7795 30.2998C59.3477 29.6969 60.0286 29.2296 60.823 28.8974C61.617 28.5653 62.4967 28.3992 63.462 28.3992C64.427 28.3992 65.3067 28.5653 66.101 28.8974C66.9011 29.2296 67.5855 29.6969 68.1536 30.2998C68.7217 30.8963 69.1616 31.6098 69.4731 32.4402C69.7847 33.2642 69.9405 34.1715 69.9405 35.1618ZM68.117 35.1618C68.117 34.3499 68.007 33.6211 67.7871 32.9753C67.5672 32.3295 67.2556 31.7851 66.8524 31.3423C66.4492 30.8931 65.9604 30.5489 65.3863 30.309C64.8119 30.0691 64.1705 29.9492 63.462 29.9492C62.7593 29.9492 62.121 30.0691 61.5469 30.309C60.9725 30.5489 60.4808 30.8931 60.0716 31.3423C59.6684 31.7851 59.3568 32.3295 59.1369 32.9753C58.917 33.6211 58.807 34.3499 58.807 35.1618C58.807 35.9737 58.917 36.7025 59.1369 37.3483C59.3568 37.9878 59.6684 38.5322 60.0716 38.9813C60.4808 39.4242 60.9725 39.7655 61.5469 40.0054C62.121 40.2389 62.7593 40.356 63.462 40.356C64.1705 40.356 64.8119 40.2389 65.3863 40.0054C65.9604 39.7655 66.4492 39.4242 66.8524 38.9813C67.2556 38.5322 67.5672 37.9878 67.7871 37.3483C68.007 36.7025 68.117 35.9737 68.117 35.1618ZM80.7723 30.0507H76.5205V41.7675H74.752V30.0507H70.4911V28.5469H80.7723V30.0507ZM81.9604 29.7831C82.4552 29.3403 83.0294 29.0018 83.6831 28.7683C84.3366 28.5345 85.0788 28.4177 85.9098 28.4177C86.5879 28.4177 87.1955 28.5007 87.7333 28.6668C88.2768 28.8329 88.7381 29.0664 89.117 29.368C89.4955 29.6693 89.7859 30.0259 89.9875 30.4382C90.1951 30.8502 90.299 31.3022 90.299 31.7944C90.299 32.4586 90.1341 33.0428 89.8042 33.5473C89.4803 34.0515 89.0222 34.4422 88.4297 34.719C88.7656 34.8603 89.0711 35.0355 89.346 35.2448C89.6209 35.4478 89.856 35.6785 90.0516 35.9368C90.2532 36.1951 90.4058 36.4779 90.5098 36.7856C90.6197 37.0929 90.6747 37.4158 90.6747 37.7543C90.6747 38.3323 90.5676 38.8735 90.354 39.378C90.1401 39.8823 89.8286 40.322 89.4193 40.6973C89.0162 41.0664 88.5182 41.3584 87.9257 41.5738C87.333 41.7889 86.658 41.8967 85.9006 41.8967C84.9597 41.8967 84.1138 41.7428 83.3624 41.4354C82.611 41.1217 81.9664 40.7002 81.4289 40.1715L81.9421 39.3227C81.9908 39.2549 82.052 39.1996 82.1253 39.1566C82.1986 39.1073 82.278 39.0828 82.3636 39.0828C82.4919 39.0828 82.6445 39.1534 82.8217 39.295C82.9987 39.4302 83.2249 39.581 83.4998 39.7471C83.7747 39.9131 84.1075 40.0668 84.4986 40.2084C84.8955 40.3436 85.3783 40.4113 85.9464 40.4113C86.429 40.4113 86.8596 40.3528 87.2385 40.236C87.6233 40.119 87.944 39.95 88.2006 39.7286C88.4632 39.5072 88.6617 39.2365 88.7962 38.9167C88.9366 38.5967 89.007 38.2369 89.007 37.8373C89.007 37.4928 88.9397 37.1759 88.8054 36.887C88.6771 36.5979 88.4876 36.3519 88.2373 36.149C87.9867 35.9397 87.6812 35.7799 87.3209 35.6692C86.9604 35.5522 86.5541 35.4939 86.1022 35.4939H84.3062V34.027H86.0289C86.4015 34.027 86.7465 33.9809 87.0644 33.8886C87.388 33.7964 87.6629 33.6609 87.8891 33.4827C88.121 33.3042 88.3014 33.086 88.4297 32.8277C88.564 32.5693 88.6313 32.2741 88.6313 31.942C88.6313 31.6404 88.57 31.3636 88.448 31.1117C88.3258 30.8594 88.1485 30.644 87.9166 30.4658C87.6843 30.2813 87.4003 30.1398 87.0644 30.0415C86.7282 29.9429 86.3465 29.8938 85.919 29.8938C85.4241 29.8938 85.0026 29.946 84.6544 30.0507C84.3062 30.1551 84.013 30.2721 83.7747 30.4013C83.5365 30.5241 83.3409 30.638 83.1883 30.7426C83.0417 30.847 82.9134 30.8995 82.8034 30.8995C82.7055 30.8995 82.6262 30.8778 82.5652 30.8349C82.5039 30.7916 82.4461 30.721 82.3911 30.6227L81.9604 29.7831ZM97.5781 40.3467C98.0852 40.3467 98.519 40.2882 98.8793 40.1715C99.2458 40.0544 99.5422 39.8947 99.7681 39.6917C100 39.4824 100.168 39.2333 100.272 38.9444C100.382 38.6492 100.437 38.3263 100.437 37.9757C100.437 37.6067 100.382 37.2806 100.272 36.9978C100.168 36.7086 100 36.4656 99.7681 36.2689C99.5422 36.0659 99.249 35.9152 98.8885 35.8168C98.5282 35.7122 98.0944 35.66 97.5873 35.66H95.0307V40.3467H97.5781ZM97.5873 34.2392C98.3876 34.2392 99.078 34.3283 99.6582 34.5068C100.239 34.6789 100.715 34.9248 101.088 35.2448C101.466 35.5585 101.745 35.9336 101.922 36.3704C102.105 36.8069 102.196 37.2838 102.196 37.8004C102.196 38.4093 102.093 38.9597 101.885 39.4518C101.683 39.9376 101.384 40.3528 100.987 40.6973C100.596 41.0416 100.113 41.3062 99.5391 41.4908C98.9649 41.6753 98.3112 41.7675 97.5781 41.7675H93.2622V28.5469H95.0307V34.2392H97.5873ZM106.384 41.7675H104.606V28.5469H106.384V41.7675ZM114.355 40.3467C114.862 40.3467 115.298 40.2882 115.665 40.1715C116.031 40.0544 116.331 39.8915 116.563 39.6825C116.801 39.4671 116.975 39.2149 117.085 38.926C117.195 38.6307 117.25 38.3078 117.25 37.9572C117.25 37.2745 117.009 36.7363 116.526 36.3427C116.044 35.9428 115.32 35.743 114.355 35.743H111.514V40.3467H114.355ZM111.514 29.9584V34.4699H113.86C114.361 34.4699 114.794 34.4145 115.161 34.3038C115.534 34.1931 115.839 34.0392 116.077 33.8425C116.322 33.6456 116.502 33.4089 116.618 33.1321C116.734 32.849 116.792 32.5417 116.792 32.2095C116.792 31.4282 116.56 30.8594 116.096 30.5027C115.631 30.1398 114.911 29.9584 113.933 29.9584H111.514ZM113.933 28.5469C114.739 28.5469 115.433 28.6267 116.013 28.7867C116.6 28.9465 117.079 29.1742 117.452 29.4694C117.831 29.7647 118.109 30.1274 118.286 30.5581C118.463 30.9825 118.551 31.4622 118.551 31.9973C118.551 32.3231 118.5 32.6368 118.396 32.9384C118.298 33.2336 118.148 33.5104 117.947 33.7687C117.745 34.027 117.488 34.2606 117.177 34.4699C116.872 34.6728 116.511 34.8389 116.096 34.9681C117.061 35.1526 117.785 35.5 118.267 36.0106C118.756 36.5148 119 37.1791 119 38.0034C119 38.563 118.897 39.0736 118.689 39.5349C118.487 39.9962 118.188 40.3929 117.791 40.725C117.4 41.0571 116.917 41.3155 116.343 41.5C115.769 41.6782 115.115 41.7675 114.382 41.7675H109.745V28.5469H113.933Z" fill="#181818"/>
<defs>
<linearGradient id="paint0_linear_1968_2" x1="44.7528" y1="45.4576" x2="0.658776" y2="43.0109" gradientUnits="userSpaceOnUse">
<stop stop-color="#21A038"/>
<stop offset="1" stop-color="#00C036"/>
</linearGradient>
</defs>
</svg>
